<?xml version="1.0" encoding="UTF-8" standalone="no"?>
<?xml-stylesheet type="text/css" href="nav-style.css"?>
<!-- Created with Inkscape (http://www.inkscape.org/) -->
<svg xmlns:dc="http://purl.org/dc/elements/1.1/" xmlns:cc="http://creativecommons.org/ns#" xmlns:rdf="http://www.w3.org/1999/02/22-rdf-syntax-ns#" xmlns:svg="http://www.w3.org/2000/svg" xmlns="http://www.w3.org/2000/svg" xmlns:sodipodi="http://sodipodi.sourceforge.net/DTD/sodipodi-0.dtd" xmlns:inkscape="http://www.inkscape.org/namespaces/inkscape" version="1.1" id="svg2" width="582.99988" height="563.92389" viewBox="0 0 582.99988 563.92389">
  <metadata id="metadata8">
    
  </metadata>
  <defs id="defs6">
    <pattern y="0" x="0" height="6" width="6" patternUnits="userSpaceOnUse" id="EMFhbasepattern"/>
  </defs>
  
  <filter id="dropShadow" height="130%">
    <feGaussianBlur in="SourceAlpha" stdDeviation="3" id="feGaussianBlur7"/>
    
    <feOffset dx="10" dy="10" result="offsetblur" id="feOffset9"/>
    
    <feComponentTransfer id="feComponentTransfer13">
      <feFuncA type="linear" slope="0.5" id="feFuncA11"/>
      
    </feComponentTransfer>
    <feMerge id="feMerge19">
      <feMergeNode id="feMergeNode15"/>
      
      <feMergeNode id="feMergeNode17"/>
      
    </feMerge>
  </filter>
  <path d="M 582.8135,19.0001 531.3048,16.2966 530.9644,16.2786 220.8135,0 l 0.1864,172.9239 -68.1864,1.0762 v 70.9238 H 0 v 319 h 411.9999 c 37.4362,-82.2087 99.0376,-120.9277 171,-141 z" id="path93" class="building" style="fill:#ffffff"/>
  <path d="m 220.9307,0.9063 0.0692,172.0176 -68.1864,1.0762 v 70.9238 L 2.9307,244.9059 c 129.2856,-32.9907 214.7446,-147.5493 218,-244 z" id="path3853" class="void"/>
  <g id="cab4a28" class="room">
    <path class="study" id="path4815" d="m 220.8135,1e-4 0.1582,173 160.5184,-0.076 -0.6766,-164.3693 z"/>
    <text id="text32-3" class="cab-num" y="110" x="260.12393" xml:space="preserve"><tspan y="110" x="260.12393" id="tspan30-7">428</tspan></text>
  </g>
  <g id="cab4a27" class="room">
    <path class="study" id="path128" d="M 381.4901,172.9241 472.8632,172.8067 472.9694,13.1505 380.783,8.465 Z"/>
    <text xml:space="preserve" x="389.6268" y="110" id="text32-77" class="cab-num"><tspan id="tspan30-8" x="389.6268" y="110">427</tspan></text>
  </g>
  <g id="cab4a26" class="room">
    <path class="study" id="path126" d="M 530.3272,172.9239 H 472.9999 V 13.2403 l 58,3.1523 v 156.5313 z"/>
    <text transform="rotate(90)" id="text32-7" class="cab-num" y="-488.96732" x="60" xml:space="preserve"><tspan y="-488.96732" x="60" id="tspan30-5">426</tspan></text>
  </g>
  <g id="cab4a25" class="room">
    <path class="study" id="path4817" d="m 582.9308,19.0001 -51.9309,-2.5212 v 156.445 h 52 z"/>
    <text transform="rotate(90)" id="text32" class="cab-num" y="-543.6955" x="60" xml:space="preserve"><tspan y="-543.6955" x="60" id="tspan30">425</tspan></text>
  </g>
  <g id="cab4a35" class="room">
    <path class="study" id="path4819" d="M 152.7083,245.0291 V 395.1449 H 0.1052 V 245.0291 Z"/>
    <text id="text32-6" class="cab-num" y="335.84567" x="38.192909" xml:space="preserve"><tspan y="335.84567" x="38.192909" id="tspan30-81">435</tspan></text>
  </g>
  <g id="cab4a34" class="room">
    <path class="study" id="path4821" d="m 0,449.0001 h 152.8135 v 88.9238 H 0 Z"/>
    <text id="text32-8" class="cab-num" y="511.51324" x="36.778698" xml:space="preserve"><tspan y="511.51324" x="36.778698" id="tspan30-6">434</tspan></text>
  </g>
  <g id="str4a" class="room">
    <path class="stair" id="path4829" d="m 152.8135,537.9239 v 26 H 0 v -26 z"/>
    <path class="icon" id="stairs-6" d="m 78.939374,541.50333 v 4.8 h -4.8001 v 4.7999 h -4.7999 v 4.8001 h -4.8 v 3.6 h 8.3999 v -4.8 h 4.8001 v -4.7999 h 4.8 v -4.8001 h 4.8 v -3.6 z"/>
  </g>
  <g id="lft4a" class="room">
    <path class="stair" id="path4827" d="m 362.9999,390.9239 h -141 v -110 l 37,-37 h 104 z"/>
    <path class="icon" id="lift-0" d="m 277.91606,284.683 13.3334,13.3334 h -10 v 13.3333 h -6.6667 v -13.3333 h -10 l 13.3333,-13.3334 m 33.3334,26.6667 -13.3334,-13.3333 h 10 V 284.683 h 6.6667 v 13.3334 h 10 l -13.3333,13.3333 m -33.3334,6.6667 h 33.3334 a 6.6666667,6.6666667 0 0 1 6.6666,6.6666 v 20 a 6.6666667,6.6666667 0 0 1 -6.6666,6.6667 h -33.3334 a 6.6666667,6.6666667 0 0 1 -6.6666,-6.6667 v -20 a 6.6666667,6.6666667 0 0 1 6.6666,-6.6666 m 0,6.6666 v 20 h 33.3334 v -20 z"/>
  </g>
  <g id="tlt4a" class="room">
    <path class="toilet" id="path4825" d="m 362.9999,467.9239 v -77 h -141 v 77 z"/>
    <path class="icon" d="m 268.68232,464.29506 v -26.4798 h -5.28 v -19.3599 c 0,-3.92 3.2,-7.0399 7.0399,-7.0399 h 10.64 c 3.8399,0 7.0399,3.1199 7.0399,7.0399 v 19.3599 h -5.2799 v 26.4798 z m 44.1596,0 v -21.1199 h 10.56 l -8.96,-26.9598 c -0.96,-2.8799 -3.68,-4.7999 -6.7199,-4.7999 h -0.4 c -3.04,0 -5.76,1.92 -6.72,4.7999 l -8.9599,26.9598 h 10.5599 v 21.1199 z m -37.1197,-56.4796 c 3.92,0 7.12,-3.12 7.12,-7.04 0,-3.9199 -3.2,-7.0399 -7.12,-7.0399 -3.92,0 -7.0399,3.12 -7.0399,7.0399 0,3.92 3.1199,7.04 7.0399,7.04 z m 31.7598,0 c 3.9199,0 7.1199,-3.12 7.1199,-7.04 0,-3.9199 -3.2,-7.0399 -7.1199,-7.0399 -3.84,0 -7.04,3.12 -7.04,7.0399 0,3.92 3.12,7.04 7.04,7.04 z" id="path418"/>
  </g>
  <g id="cab4a33" class="room">
    <path class="study" id="path4823" d="m 202.1475,563.9239 v -96 h 160.8524 v 96 z"/>
    <text id="text32-4" class="cab-num" y="528.68842" x="248.91074" xml:space="preserve"><tspan y="528.68842" x="248.91074" id="tspan30-43">433</tspan></text>
  </g>
  <path d="m 362.9999,302.9239 h 79.8136 v -59.0187 l -79.8672,-0.052 z" id="path4831" class="void"/>
  <path d="m 442.8135,243.9052 h 28.16146 l 0.0312,59.02491 h -28.19261 z" id="path118" style="stroke-width:1.01273692" class="void"/>
  <g id="cab4a29" class="room">
    <path class="study" id="path130" d="m 362.9999,302.9239 v 88 h 103.3969 v -88 z"/>
    <text id="text32-1" class="cab-num" y="361.81833" x="375.48285" xml:space="preserve"><tspan y="361.81833" x="375.48285" id="tspan30-9">429</tspan></text>
  </g>
  <path d="m 461.9999,390.9239 h 49 v -146 h 72 v 178 c -84.3994,22.2916 -139.3819,71.111 -171,141 h -49 v -173 z" id="path44" class="void"/>
  <circle class="dot" id="dot4a-12" cx="179.25157" cy="536.70026" r="10"/>
  <circle class="dot" id="dot4a-11" cx="178.19092" cy="482.6066" r="10"/>
  <circle class="dot" id="dot4a-10" cx="187.3833" cy="421.08832" r="10"/>
  <circle class="dot" id="dot4a-9" cx="183.14066" cy="360.27713" r="10"/>
  <circle class="dot" id="dot4a-8" cx="187.3833" cy="300.1731" r="10"/>
  <circle class="dot" id="dot4a-7" cx="222.73865" cy="249.96848" r="10"/>
  <circle class="dot" id="dot4a-6" cx="270.8219" cy="208.95627" r="10"/>
  <circle class="dot" id="dot4a-5" cx="329.51178" cy="206.83496" r="10"/>
  <circle class="dot" id="dot4a-4" cx="383.95898" cy="206.12785" r="10"/>
  <circle class="dot" id="dot4a-3" cx="441.23465" cy="204.71364" r="10"/>
  <circle class="dot" id="dot4a-2-1" cx="494.97473" cy="204.00653" r="10"/>
  <circle class="dot" id="dot4a-1" cx="546.59351" cy="202.59233" r="10"/>
  <circle class="dot" id="dot4a-2-2" cx="492.85342" cy="257.74664" r="10"/>
  <circle class="dot" id="dot4a-2-3" cx="491.43921" cy="315.02231" r="10"/>
  </svg>
