<?xml version="1.0" encoding="UTF-8" standalone="no"?>
<?xml-stylesheet type="text/css" href="nav-style.css"?>
<!-- Created with Inkscape (http://www.inkscape.org/) -->
<svg xmlns:dc="http://purl.org/dc/elements/1.1/" xmlns:cc="http://creativecommons.org/ns#" xmlns:rdf="http://www.w3.org/1999/02/22-rdf-syntax-ns#" xmlns:svg="http://www.w3.org/2000/svg" xmlns="http://www.w3.org/2000/svg" xmlns:sodipodi="http://sodipodi.sourceforge.net/DTD/sodipodi-0.dtd" xmlns:inkscape="http://www.inkscape.org/namespaces/inkscape" version="1.1" id="svg2" width="583.00031" height="563.92383" viewBox="0 0 583.00031 563.92383">
  <metadata id="metadata8">
    
  </metadata>
  <defs id="defs6"/>
  
  <filter id="dropShadow" height="130%">
    <feGaussianBlur in="SourceAlpha" stdDeviation="3" id="feGaussianBlur6"/>
    
    <feOffset dx="10" dy="10" result="offsetblur" id="feOffset8"/>
    
    <feComponentTransfer id="feComponentTransfer12">
      <feFuncA type="linear" slope="0.5" id="feFuncA10"/>
      
    </feComponentTransfer>
    <feMerge id="feMerge18">
      <feMergeNode id="feMergeNode14"/>
      
      <feMergeNode id="feMergeNode16"/>
      
    </feMerge>
  </filter>
  <path d="m 582.8139,19 -362,-19 0.1864,172.9238 L 152.8139,174 v 70.9238 H 4e-4 v 319 h 411.9999 c 37.4362,-82.2087 99.0376,-120.9277 171,-141 z" id="path93" class="building" style="fill:#ffffff"/>
  <path d="M 220.9311,0.9062 221.1175,173.83 152.8139,174 v 70.9238 L 2.9311,244.9058 c 129.2856,-32.9907 214.7446,-147.5493 218,-244 z" id="path3853" class="void"/>
  <g id="cab5a13" class="room">
    <path class="study" id="path3861" d="m 221.1175,173.83 h 65 L 286.14664,3.4360359 220.8139,0 Z"/>
    <text transform="rotate(90)" id="text32-1" class="cab-num" y="-241.20157" x="52.500801" xml:space="preserve"><tspan y="-241.20157" x="52.500801" id="tspan30-1">513</tspan></text>
  </g>
  <g id="cab5a14" class="room">
    <path class="study" id="path4815" d="M 286.14664,3.4360359 286.1175,173.83 446.0003,172.9238 445.9691,11.7988 Z"/>
    <text id="text32-6" class="cab-num" y="100" x="338.50552" xml:space="preserve"><tspan y="100" x="338.50552" id="tspan30-8">514</tspan></text>
  </g>
  <g id="cab5a12" class="room">
    <path class="study" id="path4817" d="m 582.907,19 -136.93795,-7.2012 0.0312,161.125 h 137 z"/>
    <text id="text32" class="cab-num" y="100" x="475.56528" xml:space="preserve"><tspan y="100" x="475.56528" id="tspan30">512</tspan></text>
  </g>
  <g id="cab5a22" class="room">
    <path class="study" id="path4819" d="M 152.8143,244.9234 V 467.6742 H 0 V 244.9234 Z"/>
    <text id="text32-81" class="cab-num" y="375.95328" x="37.278049" xml:space="preserve"><tspan y="375.95328" x="37.278049" id="tspan30-4">522</tspan></text>
  </g>
  <g id="cab5a21" class="room">
    <path class="study" id="path4821" d="m 4e-4,467.9238 h 152.8135 v 70 H 4e-4 Z"/>
    <text id="text32-12" class="cab-num" y="516.9726" x="40.106476" xml:space="preserve"><tspan y="516.9726" x="40.106476" id="tspan30-65">521</tspan></text>
  </g>
  <g id="str5a" class="room">
    <path class="stair" id="path4829" d="m 152.8139,537.9238 v 26 H 4e-4 v -26 z"/>
    <path class="icon" id="stairs-6" d="m 78.378779,542 v 4.8 h -4.8001 v 4.7999 h -4.7999 V 556.4 h -4.8 v 3.6 h 8.3999 v -4.8 h 4.8001 v -4.7999 h 4.8 V 545.6 h 4.8 V 542 Z"/>
  </g>
  <g id="lft5a" class="room">
    <path class="stair" id="path4827" d="m 362.9467,390.8531 h -141 v -110 l 37,-37 h 104 z"/>
    <path class="icon" id="lift-0" d="m 279.6669,288.92383 13.3334,13.3334 h -10 v 13.3333 h -6.6667 v -13.3333 h -10 l 13.3333,-13.3334 m 33.3334,26.6667 -13.3334,-13.3333 h 10 v -13.3334 h 6.6667 v 13.3334 h 10 l -13.3333,13.3333 m -33.3334,6.6667 h 33.3334 a 6.6666667,6.6666667 0 0 1 6.6666,6.6666 v 20 a 6.6666667,6.6666667 0 0 1 -6.6666,6.6667 h -33.3334 a 6.6666667,6.6666667 0 0 1 -6.6666,-6.6667 v -20 a 6.6666667,6.6666667 0 0 1 6.6666,-6.6666 m 0,6.6666 v 20 h 33.3334 v -20 z"/>
  </g>
  <g id="tlt5a" class="room">
    <path class="toilet" id="path4825" d="m 363.0003,467.9238 v -77 h -141 v 77 z"/>
    <path class="icon" id="wc-7" d="m 266.88939,463.68116 v -26.4706 h -5.2941 v -19.4117 c 0,-3.8824 3.1765,-7.0588 7.0588,-7.0588 h 10.5883 c 3.8824,0 7.0588,3.1764 7.0588,7.0588 v 19.4117 h -5.2941 v 26.4706 z m 44.1176,0 v -21.1765 h 10.5883 l -8.9647,-26.9294 c -0.9882,-2.8941 -3.6706,-4.8352 -6.7059,-4.8352 h -0.4236 c -3.0353,0 -5.7528,1.9411 -6.7058,4.8352 l -8.9647,26.9294 h 10.5882 v 21.1765 z m -37.0587,-56.4706 c 3.9175,0 7.0588,-3.1411 7.0588,-7.0588 0,-3.9176 -3.1413,-7.0588 -7.0588,-7.0588 -3.9177,0 -7.0589,3.1412 -7.0589,7.0588 0,3.9177 3.1412,7.0588 7.0589,7.0588 z m 31.7647,0 c 3.9177,0 7.0587,-3.1411 7.0587,-7.0588 0,-3.9176 -3.141,-7.0588 -7.0587,-7.0588 -3.9177,0 -7.0589,3.1412 -7.0589,7.0588 0,3.9177 3.1412,7.0588 7.0589,7.0588 z"/>
  </g>
  <g id="cab5a19" class="room">
    <path class="study" id="path137" d="m 200.0003,545.9238 v -78 h 22 0 41 v 78 z" style="stroke-width:0.91581094"/>
    <text transform="rotate(90)" id="text32-0" class="cab-num" y="-216.29459" x="469.30988" xml:space="preserve"><tspan y="-216.29459" x="469.30988" id="tspan30-7">519</tspan></text>
  </g>
  <g id="cab5a20" class="room">
    <path class="study" id="path135" d="m 200.0003,563.9238 h 163 v -96 h -100 v 78 h -63 z"/>
    <text id="text32-61" class="cab-num" y="527.88428" x="276.28015" xml:space="preserve"><tspan y="527.88428" x="276.28015" id="tspan30-6">520</tspan></text>
  </g>
  <path d="m 363.0003,304 h 79.8136 v -60.0939 l -79.8672,-0.053 z" id="path4831" class="void"/>
  <path d="m 442.8139,304 36.1864,-0.0762 v -60 l -36.1864,-0.018 z" id="path133" class="void"/>
  <g id="cab5a15" class="room">
    <path class="study" id="path131" d="m 363.0003,304 v 86.9238 h 102 v -87 h -102 z"/>
    <text id="text32-8" class="cab-num" y="358.78885" x="374.56799" xml:space="preserve"><tspan y="358.78885" x="374.56799" id="tspan30-12">515</tspan></text>
  </g>
  <path d="m 462.0003,390.9238 h 49 v -146 h 72 v 178 c -84.3994,22.2916 -139.3819,71.111 -171,141 h -49 v -173 z" id="path44" class="void"/>
  <circle class="dot" id="dot5a-10" cx="175.5" cy="536.92383" r="10"/>
  <circle class="dot" id="dot5a-9" cx="179.60513" cy="479.93497" r="10"/>
  <circle class="dot" id="dot5a-8" cx="184.55487" cy="420.12378" r="10"/>
  <circle class="dot" id="dot5a-7" cx="186.67619" cy="359.31259" r="10"/>
  <circle class="dot" id="dot5a-6" cx="191.41884" cy="297.673" r="10"/>
  <circle class="dot" id="dot5a-5" cx="226.20311" cy="245.5542" r="10"/>
  <circle class="dot" id="dot5a-4" cx="283.78635" cy="214.02728" r="10"/>
  <circle class="dot" id="dot5a-3" cx="355.00314" cy="211.78465" r="10"/>
  <circle class="dot" id="dot5a-2" cx="422.97119" cy="212.49176" r="10"/>
  <circle class="dot" id="dot5a-1-1" cx="493.56052" cy="213.19887" r="10"/>
  <circle class="dot" id="dot5a-1-2" cx="494.26764" cy="271.88873" r="10"/>
  <circle class="dot" id="dot5a-1-3" cx="490.02499" cy="329.87149" r="10"/>
  </svg>
