<?xml version="1.0" encoding="UTF-8" standalone="no"?>
<?xml-stylesheet type="text/css" href="nav-style.css"?>
<!-- Created with Inkscape (http://www.inkscape.org/) -->
<svg xmlns:dc="http://purl.org/dc/elements/1.1/" xmlns:cc="http://creativecommons.org/ns#" xmlns:rdf="http://www.w3.org/1999/02/22-rdf-syntax-ns#" xmlns:svg="http://www.w3.org/2000/svg" xmlns="http://www.w3.org/2000/svg" xmlns:sodipodi="http://sodipodi.sourceforge.net/DTD/sodipodi-0.dtd" xmlns:inkscape="http://www.inkscape.org/namespaces/inkscape" version="1.1" id="svg68" width="1966" height="635" viewBox="0 0 1966 635">
  <defs id="defs154"/>
  <metadata id="metadata74">

  </metadata>

  <filter id="dropShadow" height="130%">
    <feGaussianBlur in="SourceAlpha" stdDeviation="3" id="feGaussianBlur6"/>

    <feOffset dx="10" dy="10" result="offsetblur" id="feOffset8"/>

    <feComponentTransfer id="feComponentTransfer12">
      <feFuncA type="linear" slope="0.5" id="feFuncA10"/>

    </feComponentTransfer>
    <feMerge id="feMerge18">
      <feMergeNode id="feMergeNode14"/>

      <feMergeNode id="feMergeNode16"/>

    </feMerge>
  </filter>
  <path d="m 1965.0002,77.000001 h -706 V 7.000001e-7 H 1.965e-4 C 70.236996,252.3893 221.2527,377.0216 422.0002,423 l 1543,212 z" id="path80" class="building" style="fill:#ffffff"/>
  <g id="str2-left" class="room">
    <path class="stair" id="path179" d="M 72.0002,0 H 2.005e-4 C 19.4207,69.1971 45.7635,133.4801 83.0002,192 l 57.7901,-39 C 97.63451,83.51183 87.28778,51.14322 72.0002,0 Z"/>
    <path d="M 73.73384,74.55235 V 85.07866 H 63.20742 V 95.60497 H 52.68118 v 10.52631 H 42.15484 v 7.89473 h 18.421 V 103.4997 H 71.10218 V 92.9734 H 81.62842 V 82.44708 h 10.52642 v -7.89473 z" id="stairs-46" class="icon"/>
  </g>
  <g id="cab201" class="room">
    <path class="study" d="m 224.0002,0 v 201 h -48 C 126.5499,139.7933 90.8373,73.2032 72.0002,0 Z" id="path30"/>
    <text class="cab-num" id="text250" y="100" x="130.80693" xml:space="preserve"><tspan y="100" x="130.80693" id="tspan248">201</tspan></text>
  </g>
  <g id="cab202" class="room">
    <path class="study" d="m 370.0002,0 v 201 h -146 V 0 Z" id="path35"/>
    <text xml:space="preserve" x="255.23776" y="100" id="text250-3" class="cab-num"><tspan id="tspan248-9" x="255.23776" y="100">202</tspan></text>
  </g>
  <g id="cab203" class="room">
    <path class="study" d="m 513.0002,0 v 186 h -143 V 0 Z" id="path40"/>
    <text class="cab-num" id="text250-3-8" y="100" x="417.15305" xml:space="preserve"><tspan y="100" x="417.15305" id="tspan248-9-4">203</tspan></text>
  </g>
  <g id="cab204" class="room">
    <path class="study" d="m 659.0002,0 v 186 h -146 V 0 Z" id="path45"/>
    <text xml:space="preserve" x="550.59723" y="100" id="text250-3-8-3" class="cab-num"><tspan id="tspan248-9-4-3" x="550.59723" y="100">204</tspan></text>
  </g>
  <g id="cab205" class="room">
    <path class="study" d="M 804.00025,0 V 186 H 659.0002 V 0 Z" id="path50"/>
    <text xml:space="preserve" x="697.05103" y="100" id="text250-3-8-7" class="cab-num"><tspan id="tspan248-9-4-1" x="697.05103" y="100">205</tspan></text>
  </g>
  <g id="cab206" class="room">
    <path class="study" d="M 948.00021,0 V 186 H 804.00025 V 0 Z" id="path55"/>
    <text xml:space="preserve" x="838.92102" y="100" id="text250-3-8-9" class="cab-num"><tspan id="tspan248-9-4-2" x="838.92102" y="100">206</tspan></text>
  </g>
  <g id="cab207" class="room">
    <path class="study" d="M 1096.0002,0 V 186 H 948.00021 V 0 Z" id="path61"/>
    <text xml:space="preserve" x="987.23309" y="100" id="text250-3-8-4" class="cab-num"><tspan id="tspan248-9-4-0" x="987.23309" y="100">207</tspan></text>
  </g>
  <g id="str2-top" class="room">
    <path class="stair" id="path163" d="m 1259.0002,77 h -163 V 0 h 163 z"/>
    <path d="m 1188.7339,13.23656 v 12.63157 h -12.6317 V 38.4997 h -12.6315 v 12.63157 h -12.6316 v 9.47368 h 22.1052 V 47.97338 h 12.6316 V 35.34181 h 12.6315 V 22.71023 h 12.6317 v -9.47367 z" id="stairs-1" class="icon"/>
  </g>
  <g id="cab208" class="room">
    <path class="study" id="path103" d="M 1384.0002,77.000001 V 262 h -217 V 77.000001 Z"/>
    <text class="cab-num" id="text250-3-8-4-3" y="181.88708" x="1242.3943" xml:space="preserve"><tspan y="181.88708" x="1242.3943" id="tspan248-9-4-0-5">208</tspan></text>
  </g>
  <g id="cab209" class="room">
    <path class="study" id="path101" d="m 1453.0002,77.000001 h -69 V 262 h 69 z"/>
    <text class="cab-num" id="text250-3-8-4-5" y="181.34955" x="1385.0273" xml:space="preserve"><tspan y="181.34955" x="1385.0273" id="tspan248-9-4-0-50">209</tspan></text>
  </g>
  <g id="cab210" class="room">
    <path class="study" id="path99" d="m 1675.0002,77.000001 h -222 V 262 h 222 z"/>
    <text class="cab-num" id="text250-3-8-4-8" y="180.85556" x="1523.2061" xml:space="preserve"><tspan y="180.85556" x="1523.2061" id="tspan248-9-4-0-0">210</tspan></text>
  </g>
  <g id="cab211" class="room">
    <path class="study" id="path97" d="m 1965.0002,77.000001 h -226 V 256 h 226 z"/>
    <text class="cab-num" id="text250-3-8-4-2" y="180.85556" x="1820.2806" xml:space="preserve"><tspan y="180.85556" x="1820.2806" id="tspan248-9-4-0-1">211</tspan></text>
  </g>
  <g id="cab213" class="room">
    <path class="study" id="path137" d="m 1965.0002,256 v 120 h -150 V 256 Z"/>
    <text class="cab-num" id="text250-3-8-4-35" y="327.73276" x="1852.2046" xml:space="preserve"><tspan y="327.73276" x="1852.2046" id="tspan248-9-4-0-65">213</tspan></text>
  </g>
  <g id="str2-right" class="room">
    <path class="stair" id="path151" d="m 1965.0002,376 h -150 v 65 h 150 z"/>
    <path d="m 1898.7339,383.23656 v 12.63157 h -12.6317 v 12.63157 h -12.6315 v 12.63157 h -12.6316 v 9.47368 h 22.1052 v -12.63157 h 12.6316 v -12.63157 h 12.6315 v -12.63158 h 12.6317 v -9.47367 z" id="stairs-4" class="icon"/>
  </g>
  <g id="cab212" class="room">
    <path class="study" id="path135" d="m 1965.0002,441 v 194 l -231,-31.7099 1,-162.2901 z"/>
    <text class="cab-num" id="text250-3-8-4-4" y="520.97394" x="1816.1458" xml:space="preserve"><tspan y="520.97394" x="1816.1458" id="tspan248-9-4-0-4">212</tspan></text>
  </g>
  <g id="cab224" class="room">
    <path class="study" id="path119" d="M 199.1018,320.9063 250.0002,254 h 124 v 156 c -56.728,-17.3227 -115.192,-44.2946 -174.8984,-89.0937 z"/>
    <text class="cab-num" id="text250-3-8-4-0" y="331.1799" x="265.45844" xml:space="preserve"><tspan y="331.1799" x="265.45844" id="tspan248-9-4-0-00">224</tspan></text>
  </g>
  <g id="cab223" class="room">
    <path class="study" id="path121" d="M 374,254 H 520 V 436.4375 L 422,423 c -16.2126,-3.9638 -32.5313,-7.743 -48,-13 z"/>
    <text class="cab-num" id="text250-3-8-4-01" y="331.1799" x="408.02069" xml:space="preserve"><tspan y="331.1799" x="408.02069" id="tspan248-9-4-0-2">223</tspan></text>
  </g>
  <g id="cab222" class="room">
    <path class="study" id="path127" d="m 520.0002,254 h 136 v 201 l -136,-18.5625 z"/>
    <text class="cab-num" id="text250-3-8-4-00" y="332.8038" x="553.83075" xml:space="preserve"><tspan y="332.8038" x="553.83075" id="tspan248-9-4-0-25">222</tspan></text>
  </g>
  <path d="m 656.0002,254 v 63 h 110.00005 v -63 z" id="path131" class="void"/>
  <g id="cab214" class="room">
    <path class="study" id="path133" d="m 1441.0002,439 v 124 l 235,32.302 V 439 Z"/>
    <text class="cab-num" id="text250-3-8-4-9" y="520.97388" x="1523.7086" xml:space="preserve"><tspan y="520.97388" x="1523.7086" id="tspan248-9-4-0-6">214</tspan></text>
  </g>
  <g id="cab220" class="room">
    <path class="study" id="path129" d="M 656.0002,317 H 845.00021 V 481 L 656.0002,455 Z"/>
    <text class="cab-num" id="text250-3-8-4-03" y="393.70001" x="714.72699" xml:space="preserve"><tspan y="393.70001" x="714.72699" id="tspan248-9-4-0-255">220</tspan></text>
  </g>
  <g id="tlt2" class="room">
    <path class="toilet" id="path139" d="m 845.00021,317 h 194.99999 v 125 h 80 v 76.84383 L 845.00021,481 Z"/>
    <path class="icon" id="wc" d="M 916.98448,434.97027 V 408.4997 h -5.2941 v -19.41176 c 0,-3.88235 3.1765,-7.05882 7.0588,-7.05882 h 10.5883 c 3.8824,0 7.0588,3.17647 7.0588,7.05882 v 19.41176 h -5.2941 v 26.47057 z m 44.1176,0 v -21.17646 h 10.5883 l -8.9647,-26.9294 c -0.9882,-2.89412 -3.6706,-4.83529 -6.7059,-4.83529 h -0.4236 c -3.0353,0 -5.7528,1.94117 -6.7058,4.83529 l -8.9647,26.9294 h 10.5882 v 21.17646 z m -37.0587,-56.47057 c 3.9175,0 7.0588,-3.14116 7.0588,-7.05882 0,-3.91764 -3.1413,-7.05882 -7.0588,-7.05882 -3.9177,0 -7.0589,3.14118 -7.0589,7.05882 0,3.91766 3.1412,7.05882 7.0589,7.05882 z m 31.7647,0 c 3.9177,0 7.0587,-3.14116 7.0587,-7.05882 0,-3.91764 -3.141,-7.05882 -7.0587,-7.05882 -3.9177,0 -7.0589,3.14118 -7.0589,7.05882 0,3.91766 3.1412,7.05882 7.0589,7.05882 z"/>
  </g>
  <g id="str2-bottom" class="room">
    <path class="stair" id="path114" d="m 1120.0002,441.99997 v 76.84368 l 120,16.5477 v -93.39138 z"/>
    <path class="icon" id="stairs" d="m 1186.6287,459.02603 v 12.63157 h -12.6317 v 12.63157 h -12.6315 v 12.63157 h -12.6316 v 9.47368 h 22.1052 v -12.63157 h 12.6316 v -12.63157 h 12.6315 V 468.4997 h 12.6317 v -9.47367 z"/>
  </g>
  <g id="lft2" class="room">
    <path class="stair" id="path130" d="m 1240.0002,442.00002 v 93.3914 l 144,19.6086 v -113 z"/>
    <path class="icon" id="lift" d="m 1292.7688,460.16636 13.3334,13.33334 h -10 v 13.33333 h -6.6667 V 473.4997 h -10 l 13.3333,-13.33334 m 33.3334,26.66667 -13.3334,-13.33333 h 10 v -13.33334 h 6.6667 v 13.33334 h 10 l -13.3333,13.33333 m -33.3334,6.66667 h 33.3334 a 6.6666667,6.6666667 0 0 1 6.6666,6.66666 v 20 a 6.6666667,6.6666667 0 0 1 -6.6666,6.66667 h -33.3334 a 6.6666667,6.6666667 0 0 1 -6.6666,-6.66667 v -20 a 6.6666667,6.6666667 0 0 1 6.6666,-6.66666 m 0,6.66666 v 20 h 33.3334 v -20 z"/>
  </g>
  <path d="m 1676.0002,302 v 21 h -169 v -21 z" id="path46" class="void"/>
  <path d="m 1392.0002,302 v 21 h -225 v -21 z" id="path48" class="void"/>
  <circle class="dot" id="dot2-30" cx="140.79623" cy="215.38596" r="10"/>
  <circle class="dot" id="dot2-29" cx="198.14592" cy="221.96582" r="10"/>
  <circle class="dot" id="dot2-28" cx="253.35849" cy="223.67401" r="10"/>

  <circle class="dot" id="dot2-27" cx="316.69055" cy="223.75829" r="10"/>
  <circle class="dot" id="dot2-26" cx="377.02261" cy="222.09033" r="10"/>
  <circle class="dot" id="dot2-25" cx="436.7308" cy="222.17461" r="10"/>
  <circle class="dot" id="dot2-24" cx="498.43896" cy="222.88277" r="10"/>
  <circle class="dot" id="dot2-23" cx="565.64276" cy="220.71924" r="10"/>
  <circle class="dot" id="dot2-22" cx="625.72699" cy="219.17961" r="10"/>
  <circle class="dot" id="dot2-21" cx="684.81128" cy="217.63998" r="10"/>
  <circle class="dot" id="dot2-20" cx="741.64777" cy="216.10036" r="10"/>
  <circle class="dot" id="dot2-19-1" cx="802.47552" cy="218.39429" r="10"/>
  <circle class="dot" id="dot2-17-1" cx="924.26282" cy="222.5298" r="10"/>
  <circle class="dot" id="dot2-16" cx="980.67993" cy="224.23798" r="10"/>
  <circle class="dot" id="dot2-15" cx="1041.759" cy="224.5701" r="10"/>
  <circle class="dot" id="dot2-14-1" cx="1087.8486" cy="259.65378" r="10"/>
  <circle class="dot" id="dot2-13" cx="1132.0985" cy="300.32574" r="10"/>
  <circle class="dot" id="dot2-12" cx="1178.01" cy="349.00909" r="10"/>
  <circle class="dot" id="dot2-11-1" cx="1232.7496" cy="360.46078" r="10"/>
  <circle class="dot" id="dot2-10" cx="1291.7854" cy="368.24512" r="10"/>
  <circle class="dot" id="dot2-9" cx="1345.1108" cy="378.28238" r="10"/>
  <circle class="dot" id="dot2-8" cx="1408.8087" cy="385.64755" r="10"/>
  <circle class="dot" id="dot2-7-1" cx="1465.6453" cy="388.7699" r="10"/>
  <circle class="dot" id="dot2-6" cx="1519.2339" cy="386.81094" r="10"/>
  <circle class="dot" id="dot2-5" cx="1574.4464" cy="384.01315" r="10"/>
  <circle class="dot" id="dot2-4" cx="1629.6591" cy="387.1355" r="10"/>
  <circle class="dot" id="dot2-3" cx="1692.7814" cy="387.4295" r="10"/>
  <circle class="dot" id="dot2-2" cx="1746.1604" cy="387.72348" r="10"/>
  <circle class="dot" id="dot2-1-2" cx="1783.0314" cy="359.79465" r="10"/>
  <circle class="dot" id="dot2-1-1" cx="1787.7373" cy="421.34668" r="10"/>
  <circle class="dot" id="dot2-7-2" cx="1426.7559" cy="337.53671" r="10"/>
  <circle class="dot" id="dot2-7-3" cx="1425.2251" cy="277.84613" r="10"/>
  <circle class="dot" id="dot2-7-5" cx="1497.6766" cy="278.0499" r="10"/>
  <circle class="dot" id="dot2-14-2" cx="1126.0995" cy="216.20184" r="10"/>
  <circle class="dot" id="dot2-14-3" cx="1130.3484" cy="160.62355" r="10"/>
  <circle class="dot" id="dot2-14-4" cx="1132.0565" cy="110.28266" r="10"/>
  <circle class="dot" id="dot2-18" cx="862.55463" cy="222.4785" r="10"/>
  <circle class="dot" id="dot2-1-3" cx="1784.2407" cy="285.93683" r="10"/>
  <circle class="dot" id="dot2-11-2" cx="1250.0175" cy="413.48645" r="10"/>
  <circle class="dot" id="dot2-17-2" cx="921.16504" cy="287.73077" r="10"/>
  <circle class="dot" id="dot2-19-2" cx="799.37262" cy="286.7756" r="10"/>
  <circle class="dot" id="dot2-7-4" cx="1357.0212" cy="274.00089" r="10"/>
  </svg>
